<svg width="30" height="30" viewBox="0 0 30 30" fill="none" xmlns="http://www.w3.org/2000/svg">
<g clip-path="url(#clip0_210_34)">
<circle cx="11" cy="22" r="6" stroke="white"/>
<circle cx="11" cy="8" r="6" stroke="white"/>
<circle cx="19" cy="22" r="6" stroke="white"/>
<circle cx="15" cy="23" r="6" stroke="white"/>
<circle cx="22" cy="19" r="6" transform="rotate(-90 22 19)" stroke="white"/>
<ellipse cx="15" cy="15" rx="2" ry="2" transform="rotate(-90 15 15)" stroke="white"/>
<circle cx="22" cy="11" r="6" transform="rotate(-90 22 11)" stroke="white"/>
<circle cx="23" cy="15" r="6" transform="rotate(-90 23 15)" stroke="white"/>
<circle cx="8" cy="11" r="6" transform="rotate(90 8 11)" stroke="white"/>
<circle cx="8" cy="19" r="6" transform="rotate(90 8 19)" stroke="white"/>
<circle cx="7" cy="15" r="6" transform="rotate(90 7 15)" stroke="white"/>
<circle cx="15" cy="7" r="6" stroke="white"/>
<circle cx="19" cy="8" r="6" stroke="white"/>
</g>
<defs>
<clipPath id="clip0_210_34">
<rect width="30" height="30" fill="white"/>
</clipPath>
</defs>
</svg>
